<?xml version="1.0" encoding="UTF-8" standalone="no"?> <svg id="icons" xmlns="http://www.w3.org/2000/svg" viewBox="0 0 340 340"><path d="M124.456,128.621c-.526,0-1.043.035-1.557.078a18.5,18.5,0,1,0-33.766.221,18.484,18.484,0,1,0,11.982,34.471v7.557c0,1.694-2.173,5.657-3.931,8.588a2.314,2.314,0,0,0,1.985,3.507h18.886a2.314,2.314,0,0,0,1.985-3.507c-1.759-2.931-3.931-6.894-3.931-8.588v-7.333a18.493,18.493,0,1,0,8.347-34.994Z"/><path d="M196.646,266.422V23.492a17.422,17.422,0,0,0-17.4-17.4H30.876a17.423,17.423,0,0,0-17.4,17.4v242.93a17.423,17.423,0,0,0,17.4,17.4H179.243A17.422,17.422,0,0,0,196.646,266.422Zm-176.174,0V23.492a10.415,10.415,0,0,1,10.4-10.4H179.243a10.415,10.415,0,0,1,10.4,10.4v242.93a10.415,10.415,0,0,1-10.4,10.4H30.876A10.416,10.416,0,0,1,20.472,266.422Z"/><path d="M318.419,112.777l-110.8-63.469a1.984,1.984,0,0,0-2.971,1.721V52.68a5.168,5.168,0,0,0,2.6,4.482l107.7,61.691a9.1,9.1,0,0,1,3.377,12.416L208.979,322.335a9.1,9.1,0,0,1-12.4,3.387l-56.2-32.541a10.067,10.067,0,0,0-5.046-1.355h-4.05a1.938,1.938,0,0,0-.971,3.615l62.777,36.347a16.107,16.107,0,0,0,21.968-5.976L324.394,134.745a16.1,16.1,0,0,0-5.975-21.968Z"/><path d="M168.139,291.826a2.593,2.593,0,0,0-1.258,4.86l25.859,14.457a9.341,9.341,0,0,0,12.739-3.465l98.645-172.363a9.334,9.334,0,0,0-3.467-12.738L212.072,71.892a4.9,4.9,0,0,0-7.309,4.267l-.117,190.263a25.4,25.4,0,0,1-25.4,25.4Z"/><path d="M62.139,56.187C56.1,44.725,52.606,31.67,51.751,28.255a3.5,3.5,0,0,0-2.719-3.485,3.676,3.676,0,0,0-1.682,0,3.5,3.5,0,0,0-2.719,3.486c-.855,3.415-4.347,16.469-10.388,27.931a3.495,3.495,0,0,0,.122,6.988h5.047a3.486,3.486,0,0,0,2.261-6.151q.756-1.536,1.452-3.077H53.257q.7,1.537,1.452,3.077a3.486,3.486,0,0,0,2.262,6.151h5.047a3.495,3.495,0,0,0,.121-6.988ZM45.255,48.046c1.1-2.863,2.077-5.618,2.936-8.184.86,2.566,1.839,5.321,2.936,8.184Z"/><path d="M175.754,226.72h-5.047a3.486,3.486,0,0,0-2.261,6.151q-.756,1.536-1.453,3.077H156.862q-.7-1.539-1.453-3.077a3.486,3.486,0,0,0-2.261-6.151H148.1a3.495,3.495,0,0,0-.121,6.988c6.04,11.462,9.533,24.516,10.388,27.931a3.5,3.5,0,0,0,2.719,3.485,3.676,3.676,0,0,0,1.682,0,3.5,3.5,0,0,0,2.719-3.485c.855-3.416,4.347-16.469,10.388-27.931a3.495,3.495,0,0,0-.122-6.988Zm-13.826,23.313c-.86-2.566-1.839-5.322-2.937-8.184h5.873C163.767,244.711,162.787,247.467,161.928,250.033Z"/></svg>